<svg version="1.2" xmlns="http://www.w3.org/2000/svg" viewBox="0 0 537 540" width="537" height="540"><style>.a{fill:#fff}.b{fill:#8fbd40}.c{fill:#c9db96}</style><path fill-rule="evenodd" class="a" d="m85.6 455.8q5.1 5.4 10.2 10.8c3.2 2.8 6.3 5.6 9.9 8.7-6.2 0.7-10.3-1-11.4-7.4-8.5 0.3-12.8-6.4-17.5-11.4-15.8-17-29.9-35.4-41.3-55.8-11.3-20.2-18.3-42-26-63.7-9.4-26.4-10.3-53.4-9-80.6 1.5-32.4 8.5-63.7 21.5-93.5 6.6-15.2 12.5-30.9 24.3-43 9.5-9.5 18.4-19.6 27.5-29.4 6.3-6.8 11.2-14.6 18.4-20.9 27.8-24.1 59.1-41.8 93.3-54.7 10.5-3.9 22-4.8 32.8-7.7 23.7-6.4 47.6-7.1 71.5-5.8 34.2 1.8 67.1 9.7 98.1 24.9 7.9 3.9 15.8 8.2 24.2 11 11.1 3.7 15 14.8 24 20.9 11.4 7.8 21.9 17.3 31.4 27.4 12 12.9 23.7 25.9 32 42.3 11 21.5 22.9 42.4 30.9 65.3 3.1 8.6-2.2 16.7 1.7 25.8 4.1 9.5 5.2 20.8 4.7 31.8-0.3 4.4-1.1 8.6-3.5 12.1-2.9 4.2-6.9 8.9-9.3-1.9 0.6 36.8-7.2 70.9-17.7 104.8q5.1-11.7 10.2-23.4c-0.5 7.2-2.4 13.6-5 20.3-8.4 21.9-21.7 40.3-37.1 57.7-9.1 10.1-15.7 23-26.6 31.1-10.2 7.7-19.7 16.2-29.1 24.6-16.4 14.6-35.5 23.8-55.4 32.2-32.1 13.7-65.6 21.1-100.2 19.4-53.7-2.6-103.3-18.1-147.4-50.2-10-7.3-17.2-17.8-28.6-23q-0.8 0.6-1.5 1.3zm49.7 44.2c3.1 0.2 4.2 2.1 4.3 4.9 0.2 2.1 2.3 3.1 2.9 1.8 4.5-9.3 9 1.9 13.4-0.7-2.4 2.3-7.5 0.5-7.4 5.7q1.8 1.2 3.6 2.3c-2 1.2-3.8 1.5-5.1-0.9-11.2-4-11.2-4-11.7-13.1zm392.1-152.9c-0.8 2.5-0.2 3.8 2.6 6.4 1.6 1.5 0.1 2.6-0.3 4-8.9 26.7-23 50.4-40.5 72.5-19.6 24.8-42.9 45.2-68.8 62.5-29.7 19.7-61.8 33.8-97 41.5-26.8 5.9-53.5 4.9-80.4 5.2-5.8 0.1-11.4-3-17.5-2.6 12.2-3.7 24.9 0.9 37.2-2.4-10.7 0-21.2-1-31.7-3.7 36.3 1.6 72.3 3.2 108.1-6.9 35.4-9.9 67.3-26.2 95.9-48.6 29-22.7 51.1-51.5 68.8-84 17.4-31.7 24-66.5 31.5-101.3 0.2 19.7-2.3 38.8-7.9 57.4zm-419.8 131.7c-0.5 0-1.3-0.4-1.4-0.7-0.2-0.8-0.2-1.9 1.2-1.3 0.6 0.2 1 0.6 1.5 1-0.4 0.3-0.8 0.9-1.3 1z"/><path fill-rule="evenodd" class="b" d="m94.3 467.9c-8.5 0.3-12.8-6.4-17.5-11.4-15.8-17.1-29.9-35.4-41.3-55.8-11.3-20.2-18.3-42-26-63.7-9.4-26.4-10.3-53.4-9-80.6 1.5-32.4 8.5-63.7 21.5-93.5 6.6-15.2 12.5-31 24.3-43 9.4-9.6 18.4-19.6 27.5-29.4 6.2-6.9 11.2-14.6 18.4-20.9 27.8-24.1 59.1-41.8 93.3-54.7 10.5-4 22-4.9 32.8-7.8 23.7-6.3 47.6-7.1 71.5-5.8 34.2 1.9 67.1 9.7 98.1 25 7.9 3.9 15.8 8.2 24.2 11 11.1 3.7 15.1 14.7 24 20.8 11.4 7.9 21.9 17.4 31.4 27.5 12 12.9 23.7 25.9 32 42.2 11 21.5 22.9 42.5 30.9 65.4 3.1 8.6-2.2 16.7 1.7 25.7 4.1 9.6 5.2 20.9 4.7 31.8-0.3 4.5-1.1 8.7-3.5 12.2-2.9 4.2-6.9 8.9-9.3-1.9 0.6 36.7-7.2 70.8-17.7 104.7q5.1-11.6 10.2-23.3c-0.5 7.1-2.4 13.6-5 20.3-8.4 21.9-21.7 40.3-37.1 57.6-9.1 10.2-15.7 23.1-26.6 31.2-10.2 7.7-19.7 16.2-29.1 24.5-16.4 14.6-35.5 23.9-55.4 32.3-32.1 13.6-65.6 21.1-100.2 19.4-53.7-2.6-103.3-18.1-147.4-50.2-10-7.3-17.2-17.8-28.6-23.1q0.2-4-3.8-3.7c-0.3-3.9-1.9-6-6.3-5 0.4 3.4 3.1 4.6 4.9 6.4q1.8 1.9 3.7 3.7 5.1 5.4 10.2 10.8-0.8 0.7-1.5 1.3zm-20.6-50.9q0.9 1 1.9 1.9 0 0.1 0.1 0.2 0-0.1 0-0.3-1-0.9-1.9-1.9-0.9-0.9-1.9-1.9-0.1-0.1-0.2-0.1 0.1 0.1 0.1 0.2 0.9 1 1.9 1.9zm-2.1-2.7c-0.1-0.1-0.4-0.1-0.6-0.2q0.4 0.4 0.7 0.8 0-0.3-0.1-0.6zm5.7 8.1q0.1 0.1 0.1 0.2l0.5 0.4-0.4-0.4q-0.1-0.1-0.2-0.2zm-1.6-3.3q0 2.1 1.6 3.3-0.8-1.6-1.6-3.3zm308.3 65.8q0.2-0.1 0.3-0.2 0.2-0.3 0.4-0.7-0.2 0.3-0.5 0.6-0.1 0.2-0.2 0.3zm-0.4 0.2c-0.1 0.1-0.1 0.3-0.1 0.4q0.3-0.3 0.5-0.6-0.2 0-0.4 0.2zm-200.8-440.7q0.1 0 0.2 0 0-0.1 0.1-0.1-0.1 0-0.2 0-0.1 0.1-0.1 0.1zm10.6-3.5c-4.4-0.3-7.6 0.7-10.3 3.4 3.4-0.3 7.1 0.2 10.3-3.4zm-15.1 5.2c-0.1 0.2 0.2 0.7 0.4 0.7 2.1 0.6 3.1-1 4.1-2.4-1.6 0.3-3.6-0.6-4.5 1.7zm315 131.7q0 0.1 0 0.2 0.5 0.2 0.9 0.3-0.4-0.2-0.8-0.4 0 0-0.1-0.1zm-5.8-13.5c1.2 6.1 2.8 10.1 5.8 13.5 0.2-4.7-1.1-8.8-5.8-13.5zm-259.4 144.4c-5.1-7.5-9.7-14.5-14.6-21.3-2.5-3.4-2.8-5.1 1.3-7.8 10.7-7.2 14.1-17.5 10.8-29.5-2.7-9.8-12.1-16.9-24.3-17.4-11.3-0.4-22.6 0-33.9-0.2-4.1-0.1-5.3 1.3-5.3 5.3 0.2 22.3 0.1 44.5 0.1 66.8 0 2-0.6 4.1 2.6 5.1 9.3 2.9 14.3-0.6 14.3-10.4 0-2.2-0.3-4.4 0.1-6.5 0.4-2.5-1.9-6.7 2-7.2 4.3-0.5 9.5-2.5 12.9 2.5 1.8 2.5 4 5 5.2 7.8 5.5 12.4 14.7 16.7 28.8 12.8zm158-37.8c0 10.9 0 21.9 0.1 32.9 0 2-0.9 4.4 1.8 5.7 7.3 3.8 15-0.9 15.1-9.4 0-5.3 0.1-10.7-0.1-16-0.1-3.4 0.9-4.8 4.7-5.2 24.6-3 26.2-2.1 25.9 22.5-0.1 7.6 2.8 8.6 9.2 8.5 6.2 0 8.9-1 8.7-8.1-0.4-20.4-0.4-40.8 0-61.1 0.2-6.8-2-8.5-8.4-8.3-6.1 0.1-9.6 0.2-9.5 8.2 0.3 22.7-0.1 22.6-23.2 22.4-5.5-0.1-8-1.1-7.5-7.2 0.6-5.9-0.2-11.9 0.3-17.8 0.5-7.2-4.4-5.6-8.1-5.4-3.7 0.3-9.3-2.7-9.1 5.3 0.4 11 0.1 22 0.1 33zm-116 38.8c9.7 0 17.8-0.4 26 0.1 6.6 0.4 5.8-3.6 5.9-7.7 0.1-4.5 0.1-7.9-6.2-7.6-10 0.5-20-0.2-30 0.3-6.8 0.3-6-3.8-5.7-7.8 0.2-3.9-2.1-9.3 5.6-8.9 8.2 0.4 16.3-0.3 24.5 0.2 6.2 0.3 6.2-3.2 6.1-7.6-0.1-4.1 0.7-8.3-5.9-7.9-7.8 0.4-15.7-0.4-23.5 0.2-6.3 0.5-7.2-2.3-7-7.6 0.2-4.8-0.1-8.4 6.7-7.9 9.3 0.6 18.8-0.2 28.2 0.2 5.7 0.3 6.8-2.1 6.5-7.1-0.2-4.6 0.5-8.5-6.5-8.2-15 0.5-30.1 0.4-45.1 0-5.5-0.1-6.9 1.7-6.7 6.9 0.3 14.1 0 28.2 0.1 42.3 0.1 9-3 21.1 1.6 26.3 5.3 5.9 17.7 0.9 25.4 1.8zm69.3 1.2c20.2 0.1 30.9-7.7 32.8-21.1 1.7-12.5-4.8-20.3-21-25.4-4.8-1.4-9.6-2.7-14.3-4.3-3.5-1.2-6.1-3.5-5.4-7.7 0.7-4.3 4.1-5.1 7.7-5.4 6.5-0.6 12.2 1.5 17.8 4.6 7.7 4.4 7.4-4 10.4-6.9 3.7-3.4 0.4-5.3-2.4-6.9-10.8-6.1-22.2-8.5-34.3-4.9-10.2 3-16.4 11.2-16.7 21.3-0.2 10.7 4.1 17.2 15.1 21.2 6.4 2.4 13.1 4 19.7 6 4 1.3 6.6 3.8 5.8 8.3-0.7 4.2-4.1 5.2-7.7 5.5-8.1 0.7-15.3-1.4-22.1-6-7.7-5.3-8.2 3.9-11.5 6.6-4.3 3.6 0.7 5.2 2.9 6.6 8.1 5.7 17.3 8.4 23.2 8.5zm-248.7-39.9c0 10 0.4 20.1-0.2 30.1-0.4 7 1.7 8.8 8.7 8.9 7.4 0.1 9.2-2.4 8.5-9.1-0.5-5 0.1-10-0.2-15-0.3-4.6 1.6-6.1 6-5.9 7.2 0.3 14.4-0.2 21.6 0.1 6 0.3 9.9 0.1 9.8-8.1-0.1-7.7-3.7-7.8-9.2-7.5-6.9 0.2-13.9-0.4-20.7 0.2-6.6 0.6-7.6-2.3-7.6-8 0-6.1 0.8-9.3 8-8.8 9.4 0.6 18.8-0.2 28.2 0.3 6.6 0.3 5.9-3.8 5.9-7.9 0-4.1 0.9-8.1-5.8-7.9-15.7 0.4-31.4 0.4-47 0-5.3-0.1-6.2 2-6.1 6.6 0.3 10.7 0.1 21.3 0.1 32zm-62.5-29.2c-5.2 14.8-2.6 30.2-2.5 45.4 0.8-15.1 0.5-30.2 2.5-45.4zm408.3 169.2c2.4-0.7 5-2.1 5.2-5.2 0.1-3.2-2.5-5-5.4-5.2-2.9-0.3-4.5 1.8-4.9 4.5-0.4 3.3 1.6 5.1 5.1 5.9zm-167.4-381.9c8.9-0.4 17.7 3.1 26.6 0.3-8.8-1.7-17.7-2.3-26.6-0.3zm209.3 296.8c3.1-0.6 5.1-2.6 5.1-5.6 0-3.4-2.5-4.9-5.6-4.6-2.8 0.2-4.7 1.8-4.7 4.7 0.1 3.1 2 5 5.2 5.5zm10.8-67.9c-0.3-3-1.7-5.5-4.9-5.6-3.2-0.1-5.2 2-5.4 5.1-0.2 2.8 1.5 4.7 4.3 5 3.1 0.3 5.3-1.2 6-4.5zm-432.6-34.7c-3.3 0.5-4.9 2.9-4.7 5.9 0.2 2.7 2.4 4.6 5.2 4.2 3.2-0.3 5.1-2.6 4.8-5.8-0.2-2.8-2.3-4.2-5.3-4.3zm419.5-28.6c-1.1-2.2-2.2-5.1-5.7-4.5-2.6 0.5-4.8 2.4-4.4 5.3 0.4 3 2.1 5.5 5.7 4.9 2.7-0.5 4.4-2.2 4.4-5.7zm-30.5-54.8c-0.7-2.9-2-5.5-5.5-5.1-2.8 0.3-4.9 2-4.7 4.9 0.2 3.2 2.3 5.4 5.5 5.2 2.7-0.1 4.3-2.2 4.7-5zm28.3 210.7c-0.9-3.1-3-5-6.2-4.6-2.8 0.2-4.3 2.4-4.1 5.3 0.2 3.5 2.8 4.9 5.8 4.6 2.6-0.3 4.2-2.5 4.5-5.3zm-366.5 57.2c-0.6-2.9-2.4-5.2-5.5-5.1-2.7 0.1-4.8 2.2-4.6 4.9 0.2 3.1 2.3 5.4 5.5 5.3 2.7-0.1 4.3-2.1 4.6-5.1zm350.3-236.1c2.9-0.7 5.1-2.4 5.1-5.6 0-2.7-1.7-4.9-4.6-4.8-3.1 0.2-5.4 2.2-5.4 5.4 0 2.7 2.1 4.3 4.9 5zm-403.4 92.9c2.1-0.5 4.3-2 3.8-5.4-0.5-2.8-2.4-4.3-5.3-4-3.3 0.3-5.2 2.2-4.8 5.5 0.4 2.9 2.5 4.1 6.3 3.9zm23.9-90.7c3.2-0.4 4.8-2.3 4.9-5.5 0-3.1-2.3-4.3-4.8-4.6-2.9-0.4-4.4 1.6-4.7 4.3-0.4 3.4 1.4 5.1 4.6 5.8zm381.3 205.6c0-3.4-2.4-4.7-4.9-4.9-3-0.3-4.5 1.8-4.6 4.7-0.1 3.5 1.8 5.4 5.1 5.2 2.9-0.1 4.2-2.4 4.4-5zm28.5-90.6c-0.1-2.9-1.6-4.9-4.5-4.6-2.9 0.3-5.3 1.8-5 5.3 0.2 2.8 1.8 4.7 4.7 4.7 3.2-0.1 4.8-2.2 4.8-5.4zm-414 64.7c-0.1-2.7-1-5.2-4-5.3-3.1 0-5.3 2-5.4 5.3 0 2.8 1.6 4.9 4.6 4.8 2.8 0 4.5-1.8 4.8-4.8zm410.2-127.4c0-2.6-0.7-4.9-3.9-5-3.2 0-5.5 1.5-5.4 4.9 0 2.7 1.8 4.5 4.7 4.6 2.9 0.1 4.5-1.5 4.6-4.5zm-419.9 97.4c0-3.1-1.5-4.7-4.5-4.8-2.6-0.1-4.8 0.9-4.9 4-0.1 2.7 0.9 5 3.8 5.4 3.3 0.3 5-1.6 5.6-4.6zm31.3-177.3c2.8-0.2 4.5-1.7 4.4-4.7-0.1-2.9-1.9-4.6-4.6-4.7-3.3-0.1-4.9 2.1-4.9 5.3 0.1 3.2 2.4 4 5.1 4.1zm-6.9 235.4c-0.3-2.9-2.2-4.4-5-4.4-3 0-4.6 1.8-4.4 4.8 0.3 2.8 1.8 4.7 4.8 4.6 2.9-0.2 4.4-2.1 4.6-5zm-34.6-94.5c-2.9 0.2-4.7 1.6-4.8 4.6-0.2 3 1.1 4.8 4.3 4.8 2.8-0.1 4.9-1.5 5-4.5 0.1-2.9-1.4-4.7-4.5-4.9zm11-84.8c2.9-0.1 4.7-1.5 4.8-4.5 0.1-2.9-1.5-4.7-4.4-4.8-3 0-4.7 1.6-4.9 4.5-0.2 3 1.6 4.5 4.5 4.8zm267.7 303.7c-7.6-1.2-12.9 2.1-20.2 4.4 8.1 0.9 13.4-2.1 20.2-4.4zm-135.6-467c4.2 1.8 7.5-0.4 13.1-2.8-6.2-1-9.6 1-13.1 2.8zm308.1 272.9c1.3 5-3.6 9.2-1.5 14.6 1.9-4.8 3.4-9.5 1.5-14.6zm-312.3 190.7c-2.8-2-5.4-3.6-8.9-2.1 2.7 1.8 5.4 3.4 8.9 2.1zm-118-58.8c1.3-4.2-1-5.7-4.3-6.7-1.4 4.2 1 5.6 4.3 6.7zm-5.5-33.6c-0.3-0.5-0.4-1.2-0.7-1.4-0.3-0.2-0.9 0.3-1.4 0.5 0.2 0.4 0.3 1.1 0.7 1.3 0.3 0.1 0.9-0.3 1.4-0.4zm432.4-78.7c-0.3 0.5-0.6 1-0.6 1.5 0 0.5 0.3 1 0.5 1.5 0.3-0.5 0.6-1 0.6-1.5 0-0.5-0.3-1-0.5-1.5zm-135.7 161.9q0.6-0.2 1.2-0.4c-0.2-0.1-0.5-0.3-0.7-0.2-0.4 0-0.8 0.2-1.2 0.3q0.4 0.2 0.7 0.3zm-193.4 1.6c-0.2-0.2-0.4-0.6-0.5-0.6-0.5 0.1-1 0.3-1.5 0.5 0.2 0.2 0.4 0.6 0.6 0.6 0.5-0.1 0.9-0.3 1.4-0.5zm-107.4-61.6q0.7-0.2 1.5-0.5c-0.3-0.6-0.4-1.2-0.8-1.6-1.2-1.5-1.3 0.1-1.5 0.7-0.1 0.4 0.5 0.9 0.8 1.4zm310.3 56.3l0.4-0.5h-0.6zm-3.7 1.8l0.3-0.4-0.5-0.1zm-196.2 5.3l0.5 0.3 0.1-0.4zm311-335.3l-0.3 0.5 0.5 0.1z"/><path class="b" d="m535.3 289.7c0.2 19.7-2.3 38.8-7.9 57.4-0.8 2.5-0.2 3.8 2.7 6.4 1.5 1.5 0 2.6-0.4 4-8.9 26.7-22.9 50.4-40.5 72.5-19.6 24.8-42.8 45.2-68.8 62.5-29.7 19.7-61.8 33.8-97 41.5-26.8 5.9-53.5 4.9-80.3 5.2-5.9 0.1-11.5-3-17.5-2.6 12.1-3.7 24.8 0.9 37.1-2.3-10.7-0.2-21.2-1.1-31.6-3.8 36.2 1.6 72.3 3.2 108-6.9 35.4-9.9 67.3-26.2 95.9-48.6 29-22.7 51.1-51.5 68.8-84 17.4-31.7 24-66.5 31.5-101.3z"/><path class="b" d="m147 513.1c-11.2-4-11.2-4-11.7-13.1 3.1 0.2 4.2 2.1 4.3 4.9 0.2 2.1 2.4 3.1 3 1.8 4.4-9.3 8.9 1.9 13.3-0.7-2.4 2.3-7.4 0.5-7.4 5.7q-0.8 0.7-1.5 1.4z"/><path class="b" d="m95.8 466.6c3.2 2.8 6.3 5.6 9.9 8.6-6.2 0.8-10.3-0.9-11.4-7.3q0.7-0.7 1.5-1.3z"/><path class="b" d="m148.5 511.7q1.8 1.2 3.6 2.3c-2 1.2-3.8 1.5-5.1-0.9q0.7-0.7 1.5-1.4z"/><path class="b" d="m108.9 477.8c-0.4 0.3-0.8 0.9-1.3 1-0.5 0-1.3-0.4-1.4-0.8-0.2-0.7-0.2-1.9 1.2-1.2 0.6 0.2 1 0.6 1.5 1z"/><path fill-rule="evenodd" class="a" d="m228.1 308.7c-14.1 3.9-23.3-0.4-28.8-12.8-1.2-2.9-3.4-5.3-5.2-7.8-3.4-5-8.6-3-12.9-2.5-3.9 0.5-1.6 4.7-2 7.2-0.4 2.1-0.1 4.3-0.1 6.5 0 9.8-5 13.3-14.3 10.4-3.2-1-2.6-3.1-2.6-5.1 0-22.3 0.1-44.5-0.1-66.8 0-4 1.2-5.4 5.3-5.3 11.3 0.2 22.6-0.2 33.9 0.2 12.2 0.5 21.6 7.5 24.3 17.4 3.3 12-0.1 22.3-10.8 29.5-4.1 2.7-3.8 4.4-1.3 7.8 4.9 6.8 9.5 13.8 14.6 21.3zm-37.7-60.6c-3.1 1.7-9.3-3.5-11.1 3.4-4 14.4 0.2 19.4 15 18.7q0.5 0 1-0.1c7-0.6 13.2-2.5 13.8-10.9 0.5-6.8-4.9-10.8-14.3-11.1-1.2-0.1-2.5 0-4.4 0z"/><path class="a" d="m386.1 270.9c0-11 0.3-22-0.1-33-0.2-8 5.4-5 9.1-5.2 3.7-0.3 8.6-1.8 8.1 5.3-0.5 5.9 0.3 11.9-0.2 17.8-0.6 6.2 2 7.2 7.4 7.2 23.1 0.2 23.5 0.3 23.2-22.3-0.1-8.1 3.4-8.2 9.5-8.3 6.5-0.2 8.6 1.6 8.4 8.3-0.4 20.3-0.4 40.7 0 61.1 0.2 7.1-2.5 8.1-8.6 8.1-6.5 0.1-9.4-0.9-9.3-8.5 0.3-24.6-1.3-25.5-25.9-22.5-3.8 0.4-4.7 1.8-4.7 5.2 0.2 5.3 0.1 10.7 0.1 16 0 8.5-7.8 13.2-15.1 9.4-2.7-1.3-1.8-3.7-1.8-5.7-0.1-11-0.1-22-0.1-32.9z"/><path class="a" d="m270.1 309.7c-7.7-0.9-20.1 4.1-25.4-1.8-4.6-5.2-1.5-17.3-1.6-26.3-0.1-14.1 0.2-28.2-0.1-42.3-0.1-5.2 1.3-7 6.7-6.9 15.1 0.4 30.1 0.5 45.1 0 7.1-0.3 6.3 3.6 6.5 8.2 0.3 4.9-0.8 7.4-6.5 7.1-9.4-0.4-18.8 0.4-28.2-0.2-6.8-0.5-6.5 3.1-6.7 7.9-0.2 5.3 0.7 8.1 7.1 7.6 7.7-0.6 15.6 0.2 23.4-0.2 6.6-0.4 5.8 3.8 5.9 7.9 0.2 4.4 0.1 7.9-6.1 7.6-8.1-0.5-16.3 0.2-24.4-0.2-7.7-0.4-5.5 5-5.7 8.9-0.2 4-1 8.1 5.7 7.8 10-0.5 20.1 0.2 30.1-0.3 6.2-0.3 6.2 3.1 6.1 7.5-0.1 4.2 0.7 8.2-5.9 7.8-8.2-0.5-16.3-0.1-26-0.1z"/><path class="a" d="m339.4 310.9c-5.9-0.1-15.1-2.8-23.2-8.5-2.2-1.4-7.2-3-2.9-6.6 3.3-2.7 3.8-11.9 11.5-6.7 6.8 4.7 14 6.8 22.1 6.1 3.6-0.3 7-1.3 7.7-5.5 0.8-4.5-1.9-7-5.8-8.3-6.6-2-13.3-3.6-19.7-6-11-4.1-15.3-10.5-15.1-21.2 0.3-10.1 6.5-18.3 16.7-21.3 12.1-3.6 23.5-1.2 34.3 4.9 2.8 1.6 6.1 3.5 2.4 6.9-3 2.8-2.7 11.3-10.4 6.9-5.6-3.1-11.4-5.2-17.8-4.6-3.6 0.3-7 1.1-7.7 5.4-0.7 4.2 1.8 6.5 5.4 7.7 4.7 1.6 9.5 2.9 14.3 4.3 16.2 5.1 22.7 12.9 21 25.4-1.9 13.4-12.6 21.2-32.8 21.1z"/><path class="a" d="m90.7 271c0-10.7 0.1-21.3-0.1-32-0.1-4.6 0.8-6.7 6.1-6.6 15.6 0.4 31.3 0.4 47 0 6.7-0.2 5.8 3.8 5.8 7.9 0 4.1 0.7 8.2-5.9 7.9-9.4-0.5-18.8 0.3-28.2-0.3-7.2-0.5-8 2.7-8 8.8 0 5.7 1 8.6 7.6 8 6.9-0.6 13.8 0 20.7-0.2 5.5-0.3 9.2-0.2 9.2 7.5 0.1 8.2-3.8 8.4-9.8 8.1-7.2-0.3-14.4 0.2-21.6-0.1-4.4-0.2-6.2 1.3-6 5.9 0.4 5-0.3 10 0.2 15 0.7 6.7-1 9.2-8.5 9.1-7-0.1-9.1-1.9-8.7-8.9 0.7-10 0.2-20.1 0.2-30.1z"/><path class="c" d="m28.2 241.8c-2 15.2-1.7 30.3-2.5 45.4-0.1-15.3-2.7-30.6 2.5-45.4z"/><path class="c" d="m436.5 411c-3.5-0.8-5.5-2.6-5-5.9 0.3-2.7 1.9-4.8 4.8-4.5 3 0.2 5.5 2 5.4 5.2-0.2 3.1-2.8 4.5-5.2 5.2z"/><path class="c" d="m269.1 29.1c8.9-2 17.8-1.4 26.6 0.3-8.9 2.8-17.7-0.7-26.6-0.3z"/><path class="c" d="m478.4 325.9c-3.1-0.5-5.1-2.4-5.2-5.5 0-2.9 1.9-4.5 4.7-4.7 3.1-0.3 5.6 1.1 5.6 4.5 0 3.1-2 5.1-5.1 5.7z"/><path class="c" d="m489.2 258c-0.7 3.3-2.8 4.8-6 4.5-2.8-0.3-4.5-2.2-4.3-5 0.2-3.1 2.2-5.2 5.4-5.1 3.2 0.1 4.6 2.6 4.9 5.6z"/><path class="c" d="m56.6 223.3c3 0 5.1 1.4 5.3 4.3 0.3 3.2-1.6 5.5-4.8 5.8-2.8 0.4-5-1.5-5.2-4.2-0.2-3 1.4-5.4 4.7-5.9z"/><path class="c" d="m476.1 194.7c0 3.5-1.7 5.2-4.4 5.7-3.6 0.6-5.3-1.9-5.7-4.9-0.4-2.9 1.8-4.8 4.4-5.3 3.5-0.6 4.6 2.3 5.7 4.5z"/><path class="c" d="m445.6 139.9c-0.4 2.8-2 4.9-4.7 5.1-3.1 0.1-5.3-2.1-5.5-5.3-0.2-2.9 1.9-4.6 4.7-4.9 3.5-0.4 4.8 2.2 5.5 5.1z"/><path class="c" d="m473.9 350.6c-0.3 2.8-1.9 5-4.5 5.3-3 0.3-5.6-1.1-5.8-4.6-0.2-2.9 1.3-5.1 4.2-5.3 3.1-0.3 5.2 1.5 6.1 4.6z"/><path class="c" d="m107.4 407.8c-0.3 3-1.9 5-4.6 5.1-3.2 0.1-5.3-2.2-5.5-5.3-0.2-2.7 1.9-4.8 4.6-4.9 3.1-0.1 4.9 2.1 5.5 5.1z"/><path class="c" d="m457.7 171.7c-2.8-0.7-4.9-2.3-4.9-5 0.1-3.2 2.3-5.2 5.4-5.4 2.9-0.1 4.6 2.1 4.6 4.8 0 3.2-2.2 4.9-5.1 5.6z"/><path class="c" d="m54.3 264.6c-3.8 0.2-5.9-1-6.3-3.9-0.4-3.3 1.5-5.2 4.8-5.5 2.9-0.3 4.8 1.2 5.3 4 0.5 3.4-1.7 4.9-3.8 5.4z"/><path class="c" d="m78.2 173.9c-3.2-0.7-5-2.4-4.6-5.8 0.3-2.7 1.8-4.7 4.7-4.3 2.5 0.3 4.8 1.5 4.8 4.6-0.1 3.2-1.7 5.1-4.9 5.5z"/><path class="c" d="m459.5 379.5c-0.2 2.6-1.5 4.9-4.4 5-3.3 0.2-5.2-1.7-5.1-5.2 0.1-2.9 1.6-5.1 4.6-4.8 2.5 0.3 4.9 1.6 4.9 5z"/><path class="c" d="m488 288.9c0 3.2-1.6 5.3-4.8 5.4-2.8 0-4.5-1.9-4.7-4.7-0.3-3.5 2.1-5 5-5.3 2.9-0.3 4.4 1.7 4.5 4.6z"/><path class="c" d="m74 353.6c-0.3 3-2 4.8-4.8 4.8-3 0.1-4.7-2-4.6-4.8 0.1-3.3 2.3-5.3 5.4-5.3 3.1 0.1 3.9 2.6 4 5.3z"/><path class="c" d="m484.2 226.2c-0.1 3-1.7 4.5-4.6 4.5-2.9-0.1-4.7-1.9-4.7-4.6-0.1-3.3 2.2-4.9 5.4-4.9 3.2 0.1 3.9 2.4 3.9 5z"/><path class="c" d="m64.3 323.6c-0.5 3-2.3 4.9-5.6 4.6-2.9-0.4-3.9-2.7-3.8-5.4 0.1-3.1 2.2-4.1 4.9-4 3 0.1 4.5 1.7 4.5 4.7z"/><path class="c" d="m95.6 146.3c-2.7-0.1-5-0.9-5-4.1-0.1-3.2 1.6-5.4 4.8-5.3 2.7 0.1 4.5 1.8 4.6 4.7 0.1 3-1.6 4.4-4.4 4.6z"/><path class="c" d="m88.7 381.7c-0.2 3-1.7 4.8-4.6 5-3 0.1-4.5-1.8-4.8-4.6-0.2-3 1.4-4.8 4.4-4.8 2.8 0 4.7 1.5 5 4.4z"/><path class="c" d="m54.2 287.2c3 0.2 4.5 2 4.4 4.9-0.1 3-2.2 4.4-5 4.5-3.2 0.1-4.5-1.8-4.3-4.8 0.1-3 1.9-4.4 4.9-4.6z"/><path class="c" d="m65.1 202.4c-2.9-0.2-4.6-1.8-4.5-4.8 0.2-2.9 1.9-4.5 4.9-4.5 2.9 0.1 4.5 1.9 4.4 4.8-0.1 3-1.9 4.4-4.8 4.5z"/><path class="c" d="m332.8 506.1c-6.8 2.3-12.1 5.3-20.2 4.4 7.3-2.4 12.6-5.7 20.2-4.4z"/><path class="c" d="m197.2 39.1c3.5-1.8 6.9-3.8 13.1-2.8-5.6 2.4-8.9 4.6-13.1 2.8z"/><path class="c" d="m505.3 312c1.9 5.1 0.4 9.8-1.5 14.6-2.1-5.4 2.8-9.6 1.5-14.6z"/><path class="c" d="m493.4 177.9c-3.1-3.4-4.6-7.5-5.9-13.6 4.8 4.8 6.1 8.9 5.8 13.7z"/><path class="c" d="m182.9 44.4c2.8-2.7 6.1-3.8 10.4-3.5-3.2 3.7-7 3-10.4 3.4z"/><path class="c" d="m193 502.7c-3.5 1.3-6.1-0.3-8.9-2.1 3.5-1.5 6.1 0.1 8.9 2.1z"/><path class="a" d="m75 443.9c-3.3-1.1-5.7-2.5-4.3-6.7 3.3 1 5.5 2.5 4.3 6.7z"/><path class="a" d="m81.9 452.2c-1.8-1.9-4.5-3.1-4.9-6.4 4.3-1.1 6 1.1 6.3 4.9q-0.7 0.7-1.4 1.5z"/><path class="c" d="m182.9 44.3c-1.1 1.5-2 3.1-4.2 2.5-0.2 0-0.5-0.5-0.4-0.7 0.9-2.3 3-1.4 4.6-1.7 0 0 0-0.1 0-0.1z"/><path class="c" d="m69.5 410.3c-0.5 0.1-1.1 0.5-1.4 0.4-0.4-0.2-0.5-0.9-0.7-1.4 0.5-0.1 1.1-0.6 1.4-0.4 0.3 0.2 0.4 0.9 0.7 1.4z"/><path class="a" d="m85.6 455.8q-1.9-1.8-3.7-3.7 0.7-0.7 1.4-1.4 4-0.3 3.7 3.7-0.7 0.7-1.4 1.4z"/><path class="c" d="m501.9 331.6c0.2 0.5 0.5 1 0.5 1.5 0 0.5-0.3 1-0.6 1.5-0.2-0.5-0.5-1-0.5-1.5 0-0.5 0.3-1 0.6-1.5z"/><path class="c" d="m366.2 493.5q-0.3-0.1-0.7-0.3c0.4-0.1 0.8-0.3 1.2-0.4 0.2 0 0.5 0.2 0.7 0.3q-0.6 0.2-1.2 0.4z"/><path class="c" d="m172.8 495.1c-0.5 0.2-0.9 0.4-1.4 0.4-0.2 0.1-0.4-0.3-0.6-0.5 0.5-0.2 1-0.4 1.5-0.5 0.1 0 0.3 0.4 0.5 0.6z"/><path class="c" d="m77.5 422.6q-1.9-1.4-1.8-3.8l-0.1 0.1q0.9 1.9 1.8 3.7z"/><path class="a" d="m65.4 433.5c-0.3-0.5-0.9-1-0.8-1.4 0.2-0.6 0.3-2.2 1.5-0.7 0.4 0.4 0.5 1 0.8 1.6q-0.7 0.3-1.5 0.5z"/><path class="c" d="m384.3 484.7q0.2-0.3 0.4-0.7-0.2 0.3-0.5 0.6c0 0 0.1 0.1 0.1 0.1z"/><path class="c" d="m384.2 484.6q-0.4 0.5-0.7 0.9c0-0.2 0-0.4 0.1-0.4 0.2-0.2 0.5-0.3 0.7-0.4 0 0-0.1-0.1-0.1-0.1z"/><path class="c" d="m375.7 489.8l-0.2-0.6 0.6 0.1z"/><path class="c" d="m372 491.6l-0.2-0.4h0.5z"/><path class="c" d="m77.4 422.6l0.5 0.4-0.4-0.4z"/><path class="c" d="m75.7 418.8q-1-0.9-1.9-1.9l-0.1 0.1q0.9 1 1.9 1.9c0 0 0.1-0.1 0.1-0.1z"/><path class="c" d="m175.8 496.9l0.6-0.2v0.5z"/><path class="c" d="m71.8 415.1q0.9 1 1.9 1.9c0 0 0.1-0.1 0.1-0.1q-0.9-0.9-1.9-1.9z"/><path class="c" d="m493.3 178q0.5 0.2 0.9 0.4-0.4-0.3-0.8-0.5c0 0-0.1 0.1-0.1 0.1z"/><path class="c" d="m486.9 161.6l0.1 0.6-0.4-0.1z"/><path class="c" d="m71.9 415q-0.4-0.4-0.9-0.9c0.2 0.1 0.5 0.1 0.6 0.2 0.1 0.3 0.1 0.6 0.2 0.9 0-0.1 0.1-0.2 0.1-0.2z"/><path class="b" d="m190.4 248.1c2 0 3.2-0.1 4.4 0 9.4 0.3 14.8 4.2 14.3 11.1-0.6 8.4-6.8 10.3-13.8 10.9q-0.5 0.1-1 0.1c-14.8 0.7-19-4.3-15.1-18.7 1.9-6.9 8.1-1.7 11.2-3.4z"/></svg>